<svg width="32" height="33" viewBox="0 0 32 33" fill="none" xmlns="http://www.w3.org/2000/svg">
    <path d="M23.443 16.4648C23.3147 16.4648 23.2472 16.4648 23.1797 16.4648C18.8238 16.4631 14.468 16.464 10.1113 16.4548C9.64549 16.454 9.17466 16.4198 8.71466 16.349C7.68133 16.189 6.84133 15.3215 6.78549 14.2765C6.71466 12.949 6.723 11.6173 6.69716 10.2873C6.69383 10.1206 6.70216 9.95396 6.69383 9.78813C6.65466 8.96896 6.13633 8.4698 5.33799 8.47813C4.54549 8.48646 4.02799 9.00813 4.03299 9.83313C4.04299 11.2573 4.01466 12.6848 4.10799 14.104C4.24966 16.2681 5.25216 17.9115 7.32716 18.7331C7.90216 18.9606 8.55883 19.029 9.1855 19.0698C10.1697 19.1348 11.1597 19.1281 12.1463 19.1298C15.7638 19.1356 19.3822 19.1323 22.9997 19.1323C23.1213 19.1323 23.2422 19.1323 23.4322 19.1323C23.3122 19.2623 23.2413 19.3456 23.1647 19.4223C22.2472 20.3423 21.3213 21.2556 20.4122 22.1831C19.843 22.764 19.8663 23.5515 20.443 24.0931C20.9572 24.5773 21.6963 24.5865 22.213 24.0915C22.7455 23.5806 23.2605 23.0515 23.7822 22.5298C25.0397 21.2731 26.2972 20.0165 27.553 18.7581C28.148 18.1615 28.1513 17.4298 27.5563 16.8331C25.8088 15.0815 24.0572 13.3331 22.3088 11.5823C21.933 11.2065 21.4905 11.0456 20.9747 11.199C20.4797 11.3465 20.1597 11.6881 20.038 12.1931C19.9197 12.684 20.0913 13.0923 20.4372 13.4381C21.3555 14.3581 22.2747 15.2765 23.193 16.1965C23.2647 16.2665 23.3305 16.3423 23.443 16.4648Z" fill="#DCDCDC"/>
</svg>
